{
  "accessors": [
    {
      "bufferView": 2,
      "componentType": 5126,
      "count": 65532,
      "max": [
        0.44747915863990784,
        0.8261876702308655,
        2.12954044342041
      ],
      "min": [
        -0.4853455722332001,
        0.10336433351039886,
        -1.4322930574417114
      ],
      "type": "VEC3"
    },
    {
      "bufferView": 2,
      "byteOffset": 786384,
      "componentType": 5126,
      "count": 65532,
      "max": [
        1.0,
        1.0,
        1.0
      ],
      "min": [
        -1.0,
        -1.0,
        -1.0
      ],
      "type": "VEC3"
    },
    {
      "bufferView": 3,
      "componentType": 5126,
      "count": 65532,
      "max": [
        1.0,
        1.0,
        1.0,
        1.0
      ],
      "min": [
        -1.0,
        -1.0,
        -0.999999463558197,
        -1.0
      ],
      "type": "VEC4"
    },
    {
      "bufferView": 1,
      "componentType": 5126,
      "count": 65532,
      "max": [
        0.9978039264678955,
        0.998860239982605
      ],
      "min": [
        0.0,
        0.0
      ],
      "type": "VEC2"
    },
    {
      "bufferView": 1,
      "byteOffset": 524256,
      "componentType": 5126,
      "count": 65532,
      "max": [
        0.9978039264678955,
        0.998860239982605
      ],
      "min": [
        0.0,
        0.0
      ],
      "type": "VEC2"
    },
    {
      "bufferView": 1,
      "byteOffset": 1048512,
      "componentType": 5126,
      "count": 65532,
      "max": [
        0.9978039264678955,
        0.998860239982605
      ],
      "min": [
        0.0,
        0.0
      ],
      "type": "VEC2"
    },
    {
      "bufferView": 1,
      "byteOffset": 1572768,
      "componentType": 5126,
      "count": 65532,
      "max": [
        0.9978039264678955,
        0.998860239982605
      ],
      "min": [
        0.0,
        0.0
      ],
      "type": "VEC2"
    },
    {
      "bufferView": 0,
      "componentType": 5125,
      "count": 363678,
      "type": "SCALAR"
    },
    {
      "bufferView": 2,
      "byteOffset": 1572768,
      "componentType": 5126,
      "count": 65532,
      "max": [
        0.6996873617172241,
        0.68094402551651,
        2.246049642562866
      ],
      "min": [
        -0.626908540725708,
        0.06784483045339584,
        -1.4909260272979736
      ],
      "type": "VEC3"
    },
    {
      "bufferView": 2,
      "byteOffset": 2359152,
      "componentType": 5126,
      "count": 65532,
      "max": [
        1.0,
        1.0,
        0.9999998807907104
      ],
      "min": [
        -1.0,
        -1.0,
        -0.9999997019767761
      ],
      "type": "VEC3"
    },
    {
      "bufferView": 3,
      "byteOffset": 1048512,
      "componentType": 5126,
      "count": 65532,
      "max": [
        1.0,
        0.9999999403953552,
        0.9999997615814209,
        1.0
      ],
      "min": [
        -0.9999999403953552,
        -0.9999464750289917,
        -0.9999997615814209,
        -1.0
      ],
      "type": "VEC4"
    },
    {
      "bufferView": 1,
      "byteOffset": 2097024,
      "componentType": 5126,
      "count": 65532,
      "max": [
        0.997100830078125,
        0.994189977645874
      ],
      "min": [
        0.002062261337414384,
        0.0020734244026243687
      ],
      "type": "VEC2"
    },
    {
      "bufferView": 1,
      "byteOffset": 2621280,
      "componentType": 5126,
      "count": 65532,
      "max": [
        0.997100830078125,
        0.994189977645874
      ],
      "min": [
        0.002062261337414384,
        0.0020734244026243687
      ],
      "type": "VEC2"
    },
    {
      "bufferView": 1,
      "byteOffset": 3145536,
      "componentType": 5126,
      "count": 65532,
      "max": [
        0.997100830078125,
        0.994189977645874
      ],
      "min": [
        0.002062261337414384,
        0.0020734244026243687
      ],
      "type": "VEC2"
    },
    {
      "bufferView": 1,
      "byteOffset": 3669792,
      "componentType": 5126,
      "count": 65532,
      "max": [
        0.997100830078125,
        0.994189977645874
      ],
      "min": [
        0.002062261337414384,
        0.0020734244026243687
      ],
      "type": "VEC2"
    },
    {
      "bufferView": 0,
      "byteOffset": 1454712,
      "componentType": 5125,
      "count": 360891,
      "type": "SCALAR"
    },
    {
      "bufferView": 2,
      "byteOffset": 3145536,
      "componentType": 5126,
      "count": 65532,
      "max": [
        0.6996873617172241,
        0.7284207940101624,
        2.212948799133301
      ],
      "min": [
        -0.5298485159873962,
        0.0022621427197009325,
        -1.4344918727874756
      ],
      "type": "VEC3"
    },
    {
      "bufferView": 2,
      "byteOffset": 3931920,
      "componentType": 5126,
      "count": 65532,
      "max": [
        1.0,
        1.0,
        1.0
      ],
      "min": [
        -1.0,
        -1.0,
        -1.0
      ],
      "type": "VEC3"
    },
    {
      "bufferView": 3,
      "byteOffset": 2097024,
      "componentType": 5126,
      "count": 65532,
      "max": [
        1.0,
        0.9999972581863403,
        0.9999999403953552,
        1.0
      ],
      "min": [
        -1.0,
        -0.9999901056289673,
        -1.0,
        -1.0
      ],
      "type": "VEC4"
    },
    {
      "bufferView": 1,
      "byteOffset": 4194048,
      "componentType": 5126,
      "count": 65532,
      "max": [
        0.9752725958824158,
        0.9892261028289795
      ],
      "min": [
        0.0020593106746673584,
        0.002089470624923706
      ],
      "type": "VEC2"
    },
    {
      "bufferView": 1,
      "byteOffset": 4718304,
      "componentType": 5126,
      "count": 65532,
      "max": [
        0.9752725958824158,
        0.9892261028289795
      ],
      "min": [
        0.0020593106746673584,
        0.002089470624923706
      ],
      "type": "VEC2"
    },
    {
      "bufferView": 1,
      "byteOffset": 5242560,
      "componentType": 5126,
      "count": 65532,
      "max": [
        0.9752725958824158,
        0.9892261028289795
      ],
      "min": [
        0.0020593106746673584,
        0.002089470624923706
      ],
      "type": "VEC2"
    },
    {
      "bufferView": 1,
      "byteOffset": 5766816,
      "componentType": 5126,
      "count": 65532,
      "max": [
        0.9752725958824158,
        0.9892261028289795
      ],
      "min": [
        0.0020593106746673584,
        0.002089470624923706
      ],
      "type": "VEC2"
    },
    {
      "bufferView": 0,
      "byteOffset": 2898276,
      "componentType": 5125,
      "count": 363999,
      "type": "SCALAR"
    },
    {
      "bufferView": 2,
      "byteOffset": 4718304,
      "componentType": 5126,
      "count": 65532,
      "max": [
        0.6933637261390686,
        0.7284207940101624,
        2.212948799133301
      ],
      "min": [
        -0.6888653039932251,
        -0.0004588181327562779,
        -1.4344918727874756
      ],
      "type": "VEC3"
    },
    {
      "bufferView": 2,
      "byteOffset": 5504688,
      "componentType": 5126,
      "count": 65532,
      "max": [
        1.0,
        1.0,
        1.0
      ],
      "min": [
        -1.0,
        -1.0,
        -1.0
      ],
      "type": "VEC3"
    },
    {
      "bufferView": 3,
      "byteOffset": 3145536,
      "componentType": 5126,
      "count": 65532,
      "max": [
        1.0,
        0.9999857544898987,
        0.999998152256012,
        1.0
      ],
      "min": [
        -0.9999997615814209,
        -0.9999973773956299,
        -1.0,
        -1.0
      ],
      "type": "VEC4"
    },
    {
      "bufferView": 1,
      "byteOffset": 6291072,
      "componentType": 5126,
      "count": 65532,
      "max": [
        0.9977574348449707,
        0.9873657822608948
      ],
      "min": [
        0.00207661185413599,
        0.0020604655146598816
      ],
      "type": "VEC2"
    },
    {
      "bufferView": 1,
      "byteOffset": 6815328,
      "componentType": 5126,
      "count": 65532,
      "max": [
        0.9977574348449707,
        0.9873657822608948
      ],
      "min": [
        0.00207661185413599,
        0.0020604655146598816
      ],
      "type": "VEC2"
    },
    {
      "bufferView": 1,
      "byteOffset": 7339584,
      "componentType": 5126,
      "count": 65532,
      "max": [
        0.9977574348449707,
        0.9873657822608948
      ],
      "min": [
        0.00207661185413599,
        0.0020604655146598816
      ],
      "type": "VEC2"
    },
    {
      "bufferView": 1,
      "byteOffset": 7863840,
      "componentType": 5126,
      "count": 65532,
      "max": [
        0.9977574348449707,
        0.9873657822608948
      ],
      "min": [
        0.00207661185413599,
        0.0020604655146598816
      ],
      "type": "VEC2"
    },
    {
      "bufferView": 0,
      "byteOffset": 4354272,
      "componentType": 5125,
      "count": 358941,
      "type": "SCALAR"
    },
    {
      "bufferView": 2,
      "byteOffset": 6291072,
      "componentType": 5126,
      "count": 65532,
      "max": [
        3.7834979593753815e-10,
        0.5304113030433655,
        2.0863523483276367
      ],
      "min": [
        -0.6996873617172241,
        -0.00045881804544478655,
        -1.26854407787323
      ],
      "type": "VEC3"
    },
    {
      "bufferView": 2,
      "byteOffset": 7077456,
      "componentType": 5126,
      "count": 65532,
      "max": [
        1.0,
        1.0,
        1.0
      ],
      "min": [
        -1.0,
        -1.0,
        -1.0
      ],
      "type": "VEC3"
    },
    {
      "bufferView": 3,
      "byteOffset": 4194048,
      "componentType": 5126,
      "count": 65532,
      "max": [
        1.0,
        1.0,
        1.0,
        1.0
      ],
      "min": [
        -0.9999997615814209,
        -0.9999831914901733,
        -1.0,
        -1.0
      ],
      "type": "VEC4"
    },
    {
      "bufferView": 1,
      "byteOffset": 8388096,
      "componentType": 5126,
      "count": 65532,
      "max": [
        0.9975542426109314,
        0.9973032474517822
      ],
      "min": [
        0.0021632653661072254,
        0.002070116810500622
      ],
      "type": "VEC2"
    },
    {
      "bufferView": 1,
      "byteOffset": 8912352,
      "componentType": 5126,
      "count": 65532,
      "max": [
        0.9975542426109314,
        0.9973032474517822
      ],
      "min": [
        0.0021632653661072254,
        0.002070116810500622
      ],
      "type": "VEC2"
    },
    {
      "bufferView": 1,
      "byteOffset": 9436608,
      "componentType": 5126,
      "count": 65532,
      "max": [
        0.9975542426109314,
        0.9973032474517822
      ],
      "min": [
        0.0021632653661072254,
        0.002070116810500622
      ],
      "type": "VEC2"
    },
    {
      "bufferView": 1,
      "byteOffset": 9960864,
      "componentType": 5126,
      "count": 65532,
      "max": [
        0.9975542426109314,
        0.9973032474517822
      ],
      "min": [
        0.0021632653661072254,
        0.002070116810500622
      ],
      "type": "VEC2"
    },
    {
      "bufferView": 0,
      "byteOffset": 5790036,
      "componentType": 5125,
      "count": 368916,
      "type": "SCALAR"
    },
    {
      "bufferView": 2,
      "byteOffset": 7863840,
      "componentType": 5126,
      "count": 23665,
      "max": [
        4.0745362639427185e-10,
        0.6807972192764282,
        2.246049642562866
      ],
      "min": [
        -0.6540837287902832,
        0.09661177545785904,
        -1.4909261465072632
      ],
      "type": "VEC3"
    },
    {
      "bufferView": 2,
      "byteOffset": 8147820,
      "componentType": 5126,
      "count": 23665,
      "max": [
        1.0,
        0.9999955296516418,
        0.9999998211860657
      ],
      "min": [
        -1.0,
        -1.0,
        -0.999998152256012
      ],
      "type": "VEC3"
    },
    {
      "bufferView": 3,
      "byteOffset": 5242560,
      "componentType": 5126,
      "count": 23665,
      "max": [
        1.0,
        0.9999872446060181,
        0.9999997615814209,
        1.0
      ],
      "min": [
        -1.0,
        -0.9999999403953552,
        -0.9999855160713196,
        -1.0
      ],
      "type": "VEC4"
    },
    {
      "bufferView": 1,
      "byteOffset": 10485120,
      "componentType": 5126,
      "count": 23665,
      "max": [
        0.997536838054657,
        0.9977399110794067
      ],
      "min": [
        0.002279970096424222,
        0.002064518630504608
      ],
      "type": "VEC2"
    },
    {
      "bufferView": 1,
      "byteOffset": 10674440,
      "componentType": 5126,
      "count": 23665,
      "max": [
        0.997536838054657,
        0.9977399110794067
      ],
      "min": [
        0.002279970096424222,
        0.002064518630504608
      ],
      "type": "VEC2"
    },
    {
      "bufferView": 1,
      "byteOffset": 10863760,
      "componentType": 5126,
      "count": 23665,
      "max": [
        0.997536838054657,
        0.9977399110794067
      ],
      "min": [
        0.002279970096424222,
        0.002064518630504608
      ],
      "type": "VEC2"
    },
    {
      "bufferView": 1,
      "byteOffset": 11053080,
      "componentType": 5126,
      "count": 23665,
      "max": [
        0.997536838054657,
        0.9977399110794067
      ],
      "min": [
        0.002279970096424222,
        0.002064518630504608
      ],
      "type": "VEC2"
    },
    {
      "bufferView": 0,
      "byteOffset": 7265700,
      "componentType": 5125,
      "count": 126519,
      "type": "SCALAR"
    }
  ],
  "asset": {
    "extras": {
      "author": "Redgrund (https://sketchfab.com/redgrund)",
      "license": "CC-BY-4.0 (http://creativecommons.org/licenses/by/4.0/)",
      "source": "https://sketchfab.com/3d-models/alpine-a523-2023-e97c2bb620d8461c92a03d007d63188c",
      "title": "Alpine A523 2023"
    },
    "generator": "Sketchfab-16.12.0",
    "version": "2.0"
  },
  "bufferViews": [
    {
      "buffer": 0,
      "byteLength": 7771776,
      "name": "floatBufferViews",
      "target": 34963
    },
    {
      "buffer": 0,
      "byteLength": 11242400,
      "byteOffset": 7771776,
      "byteStride": 8,
      "name": "floatBufferViews",
      "target": 34962
    },
    {
      "buffer": 0,
      "byteLength": 8431800,
      "byteOffset": 19014176,
      "byteStride": 12,
      "name": "floatBufferViews",
      "target": 34962
    },
    {
      "buffer": 0,
      "byteLength": 5621200,
      "byteOffset": 27445976,
      "byteStride": 16,
      "name": "floatBufferViews",
      "target": 34962
    }
  ],
  "buffers": [
    {
      "byteLength": 33067176,
      "uri": "scene.bin"
    }
  ],
  "extensionsUsed": [
    "KHR_materials_clearcoat"
  ],
  "images": [
    {
      "uri": "textures/Body_Baked_baseColor.png"
    },
    {
      "uri": "textures/Body_Baked_metallicRoughness.png"
    },
    {
      "uri": "textures/Body_Baked_normal.png"
    },
    {
      "uri": "textures/Body_Baked_clearcoat.png"
    }
  ],
  "materials": [
    {
      "doubleSided": true,
      "extensions": {
        "KHR_materials_clearcoat": {
          "clearcoatFactor": 1.0,
          "clearcoatRoughnessFactor": 0.04,
          "clearcoatTexture": {
            "index": 3
          }
        }
      },
      "name": "Body_Baked",
      "normalTexture": {
        "index": 2,
        "texCoord": 2
      },
      "pbrMetallicRoughness": {
        "baseColorTexture": {
          "index": 0
        },
        "metallicRoughnessTexture": {
          "index": 1,
          "texCoord": 1
        }
      }
    }
  ],
  "meshes": [
    {
      "name": "Object_0",
      "primitives": [
        {
          "attributes": {
            "NORMAL": 1,
            "POSITION": 0,
            "TANGENT": 2,
            "TEXCOORD_0": 3,
            "TEXCOORD_1": 4,
            "TEXCOORD_2": 5,
            "TEXCOORD_3": 6
          },
          "indices": 7,
          "material": 0,
          "mode": 4
        }
      ]
    },
    {
      "name": "Object_1",
      "primitives": [
        {
          "attributes": {
            "NORMAL": 9,
            "POSITION": 8,
            "TANGENT": 10,
            "TEXCOORD_0": 11,
            "TEXCOORD_1": 12,
            "TEXCOORD_2": 13,
            "TEXCOORD_3": 14
          },
          "indices": 15,
          "material": 0,
          "mode": 4
        }
      ]
    },
    {
      "name": "Object_2",
      "primitives": [
        {
          "attributes": {
            "NORMAL": 17,
            "POSITION": 16,
            "TANGENT": 18,
            "TEXCOORD_0": 19,
            "TEXCOORD_1": 20,
            "TEXCOORD_2": 21,
            "TEXCOORD_3": 22
          },
          "indices": 23,
          "material": 0,
          "mode": 4
        }
      ]
    },
    {
      "name": "Object_3",
      "primitives": [
        {
          "attributes": {
            "NORMAL": 25,
            "POSITION": 24,
            "TANGENT": 26,
            "TEXCOORD_0": 27,
            "TEXCOORD_1": 28,
            "TEXCOORD_2": 29,
            "TEXCOORD_3": 30
          },
          "indices": 31,
          "material": 0,
          "mode": 4
        }
      ]
    },
    {
      "name": "Object_4",
      "primitives": [
        {
          "attributes": {
            "NORMAL": 33,
            "POSITION": 32,
            "TANGENT": 34,
            "TEXCOORD_0": 35,
            "TEXCOORD_1": 36,
            "TEXCOORD_2": 37,
            "TEXCOORD_3": 38
          },
          "indices": 39,
          "material": 0,
          "mode": 4
        }
      ]
    },
    {
      "name": "Object_5",
      "primitives": [
        {
          "attributes": {
            "NORMAL": 41,
            "POSITION": 40,
            "TANGENT": 42,
            "TEXCOORD_0": 43,
            "TEXCOORD_1": 44,
            "TEXCOORD_2": 45,
            "TEXCOORD_3": 46
          },
          "indices": 47,
          "material": 0,
          "mode": 4
        }
      ]
    }
  ],
  "nodes": [
    {
      "children": [
        1
      ],
      "matrix": [
        1.0,
        0.0,
        0.0,
        0.0,
        0.0,
        2.220446049250313e-16,
        -1.0,
        0.0,
        0.0,
        1.0,
        2.220446049250313e-16,
        0.0,
        0.0,
        0.0,
        0.0,
        1.0
      ],
      "name": "Sketchfab_model"
    },
    {
      "children": [
        2
      ],
      "name": "root"
    },
    {
      "children": [
        3
      ],
      "matrix": [
        1.0,
        0.0,
        0.0,
        0.0,
        0.0,
        2.220446049250313e-16,
        1.0,
        0.0,
        0.0,
        -1.0,
        2.220446049250313e-16,
        0.0,
        0.0,
        0.0,
        0.0,
        1.0
      ],
      "name": "GLTF_SceneRootNode"
    },
    {
      "children": [
        4,
        5,
        6,
        7,
        8,
        9
      ],
      "name": "Body_Baked_2"
    },
    {
      "mesh": 0,
      "name": "Object_4"
    },
    {
      "mesh": 1,
      "name": "Object_5"
    },
    {
      "mesh": 2,
      "name": "Object_6"
    },
    {
      "mesh": 3,
      "name": "Object_7"
    },
    {
      "mesh": 4,
      "name": "Object_8"
    },
    {
      "mesh": 5,
      "name": "Object_9"
    }
  ],
  "samplers": [
    {
      "magFilter": 9729,
      "minFilter": 9987,
      "wrapS": 10497,
      "wrapT": 10497
    }
  ],
  "scene": 0,
  "scenes": [
    {
      "name": "Sketchfab_Scene",
      "nodes": [
        0
      ]
    }
  ],
  "textures": [
    {
      "sampler": 0,
      "source": 0
    },
    {
      "sampler": 0,
      "source": 1
    },
    {
      "sampler": 0,
      "source": 2
    },
    {
      "sampler": 0,
      "source": 3
    }
  ]
}
