<svg width="1024" height="656" xmlns="http://www.w3.org/2000/svg" xmlns:xlink="http://www.w3.org/1999/xlink" xml:space="preserve" overflow="hidden"><path d="M813.061279 494.624390 C812.072815 489.319824 811.300232 484.392822 810.335266 479.503815 C806.737976 461.277435 794.182678 450.420074 775.024780 448.218903 C766.623352 447.253662 758.066101 447.898041 749.807190 445.269867 C728.300293 438.425751 712.712769 425.905273 708.277832 402.595032 C706.425476 392.858795 708.186401 383.372772 711.259216 374.097015 C714.868530 363.201538 719.065796 352.493683 721.165222 341.133514 C722.500732 333.906921 721.333435 327.610809 717.031555 321.320618 C705.344543 304.231842 687.898376 296.851135 668.950989 292.467377 C636.830139 285.035767 608.022461 291.874786 582.855103 313.756226 C567.530762 327.079773 553.602661 341.724182 542.585022 358.633881 C529.336548 378.967438 510.794342 389.150635 487.394623 392.103790 C471.357300 394.127777 455.360809 395.984467 439.118256 394.439270 C424.930817 393.089630 421.238861 390.579193 417.453796 376.793121 C415.076691 368.135101 413.105591 359.353577 411.305023 350.555298 C410.583954 347.031952 409.036316 345.192780 405.591553 343.987915 C353.562592 325.789825 302.412018 305.213135 250.380936 286.986328 C201.587402 269.893646 154.085983 249.685623 109.471390 223.206879 C78.645012 204.911438 50.886688 182.617218 24.657179 158.350235 C11.719612 146.380676 8.559570 131.538757 13.738470 114.967773 C20.862431 92.173164 44.441910 75.029037 67.962387 75.795753 C86.656448 76.405144 100.648560 86.037277 111.681816 100.463043 C120.388397 111.846725 126.194283 124.734543 130.448761 138.333405 C148.478561 195.963043 188.645309 229.949905 245.605957 245.626877 C266.715790 251.436813 288.187225 252.551788 309.840881 247.830383 C331.240356 243.164429 347.378326 231.429688 358.963257 213.021576 C367.303314 199.769547 373.703583 185.370300 382.998596 172.683548 C387.556458 166.462585 392.679535 160.786148 398.662323 155.936249 C406.751282 149.378952 414.911469 147.938034 421.198212 151.754349 C427.322144 155.471832 430.541809 164.831665 428.973969 174.077133 C427.225220 184.389526 423.786835 194.142960 418.049133 202.829788 C411.137817 213.293381 410.117432 224.432053 410.833435 236.673645 C412.617981 267.183929 418.892761 296.940094 424.249634 326.872833 C424.943146 330.747833 426.519226 332.754608 430.558228 333.981689 C447.309082 339.070709 463.082672 336.602539 478.534088 329.192230 C496.251465 320.695221 511.659760 308.741211 527.354309 297.177032 C552.342346 278.765076 575.502075 258.177399 598.725098 237.655045 C601.335754 235.347992 604.212769 233.302872 607.135376 231.395386 C617.512207 224.622620 625.652344 225.363373 634.680359 233.740646 C640.756470 239.378693 640.859802 239.525513 647.812805 234.627060 C658.769409 226.907959 670.024048 219.886261 683.306335 216.825378 C706.123169 211.567276 726.847534 216.863861 746.168274 229.234680 C760.821289 238.616867 772.647583 251.004074 783.208557 264.642670 C811.878418 301.667175 841.819092 337.669281 871.161133 374.152405 C907.290833 419.075104 943.638977 463.822113 979.888794 508.648163 C987.746765 518.365173 995.555542 528.122131 1003.443176 537.814880 C1023.558472 562.533569 1019.471619 607.337952 995.186279 628.011353 C980.254272 640.722534 961.554932 640.356506 947.357727 626.652100 C935.780273 615.476562 926.629578 602.319702 918.122803 588.737610 C910.429565 576.454407 902.822388 564.114197 895.382751 551.676147 C890.454102 543.436218 883.836975 538.934143 873.843811 539.065430 C868.088928 539.140991 862.253113 537.929810 856.557373 536.783020 C833.278076 532.095642 819.017761 517.899902 813.061279 494.624390 M865.838440 520.649353 C869.145935 520.995544 872.450500 521.605469 875.761414 521.641907 C889.632690 521.794617 900.321106 527.399170 908.094910 539.078857 C915.579163 550.323303 922.221985 562.065369 929.352539 573.515747 C938.260925 587.820923 947.513184 601.876404 959.515869 613.840637 C966.881531 621.182617 975.871094 621.340576 983.641663 614.611084 C1000.726257 599.815674 1004.063293 566.737244 989.925232 549.177490 C948.237549 497.400757 906.330017 445.801117 864.667480 394.004303 C832.717957 354.283173 800.112061 315.089935 768.850525 274.814545 C760.235535 263.715485 750.545410 253.667221 738.940247 245.578156 C713.561951 227.888733 687.901794 227.968811 662.874390 245.791931 C658.810059 248.686386 654.620850 251.462082 650.252258 253.860764 C642.120239 258.325806 634.818176 257.481262 628.052979 251.724136 C618.453552 243.555008 618.453430 243.554840 608.887207 252.004135 C608.637573 252.224686 608.403503 252.462891 608.153809 252.683380 C591.801331 267.121552 575.761108 281.922607 558.494263 295.296417 C537.559326 311.511322 517.032410 328.324280 493.745972 341.191711 C476.036346 350.977539 457.418488 356.926056 436.773895 353.377686 C434.655151 353.013550 432.433838 351.348358 429.986877 353.134796 C430.737488 359.596649 432.836731 365.750946 434.245270 372.056915 C434.983276 375.360840 436.732452 376.468018 440.088013 376.868744 C453.125610 378.425812 466.013397 376.823395 478.921722 375.568817 C500.093079 373.511047 517.658386 366.062775 529.647217 346.718414 C539.733459 330.443970 553.401550 316.762329 567.559387 303.728729 C596.989258 276.635986 631.210999 266.466797 670.385376 274.782471 C695.813538 280.180176 718.377686 290.698517 733.101929 313.762573 C738.805664 322.696777 740.407532 332.153015 738.782837 342.407654 C736.580261 356.309723 731.052673 369.230804 727.043457 382.601471 C723.722839 393.675476 724.186768 404.456177 731.810303 413.825409 C739.793335 423.636719 750.531738 428.621033 762.963928 429.726257 C769.424744 430.300690 775.939636 430.391266 782.301941 431.742798 C805.040466 436.573181 820.979309 448.973541 826.737244 472.350647 C827.925659 477.175812 828.380371 482.176819 829.345093 487.062805 C832.579102 503.441589 841.095642 515.154236 858.113159 519.211975 C860.376526 519.751648 862.678345 520.129639 865.838440 520.649353 M189.409988 241.160370 C151.731262 218.092621 126.214394 185.679398 113.569092 143.169037 C109.503769 129.502441 103.481377 116.668373 93.437042 106.198677 C75.525391 87.528496 49.903839 89.678421 35.214855 111.060364 C27.388853 122.452263 26.199358 135.809601 38.854012 147.644684 C83.208542 189.126602 133.965332 220.356430 189.572845 244.126373 C194.710663 246.322601 199.908524 248.378265 205.078506 250.499222 C200.074738 247.371780 194.893951 244.743805 189.409988 241.160370 M389.504150 194.959198 C384.656677 203.506638 380.136169 212.260925 374.888916 220.555466 C365.895020 234.772461 355.173920 247.378387 339.848999 255.334274 C313.058044 269.242706 284.711487 270.471985 255.652649 265.772247 C246.083725 264.224670 236.623581 262.086182 227.376419 259.066864 C239.650635 265.289673 402.182129 324.552643 405.606049 324.299164 C405.606049 323.648895 405.711456 322.970459 405.590851 322.334900 C400.134003 293.573669 394.893066 264.802124 393.186188 235.481995 C392.381653 221.661636 393.691223 208.597733 401.371826 196.674866 C405.999756 189.490753 409.615936 181.833786 411.253601 173.358337 C411.523285 171.962555 412.135132 170.550964 410.788391 169.042572 C401.346252 175.596832 395.634308 184.980225 389.504150 194.959198Z" fill="#FAFAFA" fill-rule="evenodd"/></svg>